<svg xmlns="http://www.w3.org/2000/svg" version="1.1" xmlns:xlink="http://www.w3.org/1999/xlink"
    xmlns:svgjs="http://svgjs.dev/svgjs" viewBox="0 0 2400 800" opacity="1">
    <g fill="currentColor" transform="matrix(1,0,0,1,10.921875,279.0899200439453)">
        <path
            d="M-10,10C15.892857142857146,14.375,64.58333333333334,37.666666666666664,114.28571428571429,31C163.98809523809524,24.333333333333336,180.95238095238096,-25.541666666666668,228.57142857142858,-22C276.1904761904762,-18.458333333333332,295.2380952380953,43.833333333333336,342.8571428571429,48C390.4761904761905,52.166666666666664,409.5238095238095,-2.625,457.14285714285717,-2C504.7619047619048,-1.375,523.8095238095239,54.333333333333336,571.4285714285714,51C619.047619047619,47.666666666666664,638.0952380952382,-19.458333333333332,685.7142857142858,-18C733.3333333333334,-16.541666666666668,752.3809523809524,54.875,800,58C847.6190476190476,61.125,866.6666666666667,-1.9583333333333333,914.2857142857143,-3C961.9047619047619,-4.041666666666667,980.9523809523811,53,1028.5714285714287,53C1076.1904761904764,53,1095.2380952380954,-0.7083333333333335,1142.857142857143,-3C1190.4761904761904,-5.291666666666666,1209.5238095238094,43.458333333333336,1257.142857142857,42C1304.7619047619048,40.541666666666664,1323.8095238095239,-9.166666666666666,1371.4285714285716,-10C1419.0476190476193,-10.833333333333334,1438.095238095238,37.166666666666664,1485.7142857142858,38C1533.3333333333335,38.833333333333336,1552.3809523809523,-14.333333333333334,1600,-6C1647.6190476190477,2.333333333333334,1666.6666666666667,78.625,1714.2857142857144,78C1761.9047619047622,77.375,1780.9523809523812,-2.125,1828.5714285714287,-9C1876.1904761904761,-15.875,1895.2380952380952,43.333333333333336,1942.857142857143,45C1990.4761904761906,46.666666666666664,2009.5238095238096,-1.625,2057.1428571428573,-1C2104.761904761905,-0.375,2123.809523809524,44.458333333333336,2171.4285714285716,48C2219.0476190476193,51.541666666666664,2238.095238095238,12.458333333333332,2285.714285714286,16C2333.3333333333335,19.541666666666668,2324.1071428571427,-15,2400,65C2475.8928571428573,145,3254.1666666666665,226.04166666666669,2650,400C2045.8333333333335,573.9583333333333,156.25,795.8333333333334,-500,900"
            transform="matrix(1,0,0,1,0,82)" opacity="1"></path>
    </g>
</svg>